<?xml version="1.0" encoding="UTF-8" standalone="no"?>
<!DOCTYPE svg PUBLIC "-//W3C//DTD SVG 1.1//EN" "http://www.w3.org/Graphics/SVG/1.1/DTD/svg11.dtd">
<svg width="100%" height="100%" viewBox="0 0 128 128" version="1.1" xmlns="http://www.w3.org/2000/svg" xmlns:xlink="http://www.w3.org/1999/xlink" xml:space="preserve" xmlns:serif="http://www.serif.com/" style="fill-rule:evenodd;clip-rule:evenodd;stroke-linecap:round;stroke-linejoin:round;stroke-miterlimit:1.5;">
    <g transform="matrix(0.916076,0,0,0.916076,7.16785,5.90739)">
        <g transform="matrix(1.09161,0,0,1.09161,-7.82451,-6.44858)">
            <path d="M10.914,76.474L10.153,75.594L9.809,75.069L9.359,74.169L9.122,73.542L9.022,72.88L9,72.062L9.04,71.376L9.22,70.714L10.934,66.285L13.319,60.121L13.001,58.603L12.748,57.052L12.567,55.507L12.455,53.974L12.412,52.456L12.436,50.959L12.525,49.486L12.602,48.629L12.777,47.193L13.01,45.79L13.296,44.423L13.632,43.093L14.014,41.803L14.436,40.555L14.896,39.349L15.388,38.189L15.909,37.076L16.454,36.013L17.019,35L17.6,34.04L18.192,33.134L18.792,32.286L19.396,31.496L19.999,30.766L20.6,30.096L21.2,29.485L21.626,29.069L22.218,28.522L22.804,28.028L23.386,27.585L23.734,27.317L23.433,24.797L23.485,22.102L23.901,19.45L24.665,16.944L25.747,14.679L25.858,14.448L27.257,12.455L27.461,12.204L29.133,10.587L29.426,10.338L31.31,9.184L31.686,8.954L32.106,8.768L32.57,8.624L34.648,7.984L35.175,7.876L35.741,7.812L36.347,7.789L38.495,7.74L39.144,7.758L54.518,8.652L55.164,8.709L55.768,8.803L56.33,8.934L58.404,9.484L58.907,9.65L59.364,9.853L61.226,10.934C61.771,10.665 62.319,10.428 62.865,10.227C64.117,9.765 68.979,7.784 76.794,9.516C87.015,11.782 90.86,18.062 91.6,19.272C95.398,25.475 96.865,32.59 98.224,34.497C98.456,34.823 98.801,35.058 99.045,35.375C99.194,35.456 99.381,35.54 99.66,35.626C100.505,35.887 101.815,36.201 102.578,36.895C102.606,36.92 102.634,36.946 102.66,36.973C102.689,37.001 102.713,37.034 102.735,37.07L102.862,37.218L103.299,37.789L103.473,38.022L103.88,38.643L104.009,38.846L104.378,39.514L104.494,39.745L104.82,40.454L105.098,41.183L105.194,41.454L105.42,42.215L105.591,42.99L105.638,43.224L105.76,44.02L105.825,44.823L105.831,45.081L105.84,45.894L105.793,46.706L105.689,47.513L105.644,47.778L105.475,48.573L105.252,49.355L105.003,50.129L100.258,62.391C97.863,61.829 95.367,61.531 92.801,61.531C92.295,61.531 91.791,61.543 91.29,61.565C74.036,62.356 60.27,76.614 60.27,94.062C60.27,96.26 60.489,98.408 60.906,100.484L60.673,100.439L58.873,100.011L57.776,99.739L56.669,99.408L54.727,98.724L53.608,98.323L52.477,97.851L50.43,96.948L49.299,96.413L47.181,95.334L46.065,94.749L43.914,93.534L42.83,92.911L40.683,91.595L39.644,90.942L37.541,89.558L34.536,87.454L32.568,85.99L30.674,84.507L29.061,83.179L28.726,83.239L28.43,83.245L28.057,84.208L27.175,86.219L26.01,88.122L25.705,88.571L24.275,90.33L22.566,91.964L20.578,93.473L18.312,94.858L18.022,95.005L15.611,96.196L12.942,97.252L11.626,94.556L10.6,91.95L9.862,89.432L9.414,87.004L9.254,84.665L9.24,84.141L9.368,81.846L9.785,79.66L10.485,77.581L10.914,76.474Z" style="stroke:black;stroke-width:12px;"/>
        </g>
        <g transform="matrix(1.11433,0.298584,-0.298584,1.11433,13.8636,-49.9313)">
            <path d="M101.882,79.504L102.959,83.446C104.321,83.673 105.658,84.031 106.95,84.515L109.854,81.64C111.332,82.312 112.742,83.126 114.063,84.071L113.025,88.023C114.091,88.9 115.07,89.878 115.947,90.944L119.899,89.906C120.843,91.227 121.657,92.637 122.329,94.116L119.454,97.019C119.939,98.312 120.297,99.648 120.524,101.01L124.465,102.087C124.622,103.704 124.622,105.332 124.465,106.948L120.524,108.025C120.297,109.387 119.939,110.723 119.454,112.016L122.329,114.919C121.657,116.398 120.843,117.808 119.899,119.129L115.947,118.091C115.07,119.157 114.091,120.135 113.025,121.012L114.063,124.964C112.742,125.909 111.332,126.723 109.854,127.395L106.95,124.52C105.658,125.004 104.321,125.362 102.959,125.589L101.882,129.531C100.266,129.688 98.638,129.688 97.021,129.531L95.945,125.589C94.583,125.362 93.246,125.004 91.953,124.52L89.05,127.395C87.572,126.723 86.162,125.909 84.84,124.964L85.879,121.012C84.813,120.135 83.834,119.157 82.957,118.091L79.005,119.129C78.061,117.808 77.247,116.398 76.574,114.919L79.45,112.016C78.965,110.723 78.607,109.387 78.38,108.025L74.438,106.948C74.281,105.332 74.281,103.704 74.438,102.087L78.38,101.01C78.607,99.648 78.965,98.312 79.45,97.019L76.574,94.116C77.247,92.637 78.061,91.227 79.005,89.906L82.957,90.944C83.834,89.878 84.813,88.9 85.879,88.023L84.84,84.071C86.162,83.126 87.572,82.312 89.05,81.64L91.953,84.515C93.246,84.031 94.583,83.673 95.945,83.446L97.021,79.504C98.638,79.347 100.266,79.347 101.882,79.504ZM99.452,91.952C106.387,91.952 112.017,97.582 112.017,104.518C112.017,111.453 106.387,117.083 99.452,117.083C92.517,117.083 86.886,111.453 86.886,104.518C86.886,97.582 92.517,91.952 99.452,91.952Z" style="stroke:black;stroke-width:11.35px;"/>
        </g>
    </g>
    <g transform="matrix(0.916076,0,0,0.916076,7.16785,5.90739)">
        <g transform="matrix(0.178513,0,0,0.178513,-131.156,-119.16)">
            <path d="M1262.41,790.986C1258.1,793.723 1257.21,801.55 1259.86,808.744C1262.5,815.938 1266.14,823.822 1272.59,823.229C1278.27,822.707 1277.88,815.508 1276.65,811.741C1269.35,789.382 1263.79,790.111 1262.41,790.986Z" style="fill:white;"/>
        </g>
        <g transform="matrix(0.178513,0,0,0.178513,-131.156,-119.16)">
            <path d="M1187.69,787.126C1197.32,783.718 1206.25,794.775 1207.78,798.302C1209.74,802.812 1213.73,815.207 1206.25,818.461C1198.76,821.715 1185.69,813.227 1181.75,805.764C1177.81,798.302 1178.97,790.214 1187.69,787.126Z" style="fill:white;"/>
        </g>
        <g transform="matrix(0.513141,0,0,0.513141,-327.716,-1757.09)">
            <g transform="matrix(0.347882,0,0,0.347882,383.053,3191.97)">
                <path d="M1150.68,871.396C1159.36,846.353 1198.37,836.549 1236.89,836.549C1249.51,836.549 1272.02,838.96 1290.5,844.669C1295.16,846.11 1294.94,847.589 1300.31,849.246C1305.67,850.902 1314.08,852.907 1318.66,857.483C1319.75,858.573 1319.96,860.752 1319.31,862.975C1318.66,865.198 1317,869.138 1316.69,871.396C1316.39,873.653 1316.65,874.525 1317.26,877.315C1317.93,880.374 1318.92,883.983 1313.82,890.826C1308.72,897.669 1302.78,899.691 1292.47,905.565C1282.17,911.438 1245.91,927.017 1244.04,927.953C1242.16,928.89 1240.39,929.561 1239.21,932.111C1238.04,934.662 1234.35,937.013 1231.01,936.594C1223.63,935.673 1223.51,936.814 1215.72,935.499C1207.93,934.184 1176.34,928.561 1156.85,909.069C1148.67,900.897 1148.41,894.282 1148.67,887.277C1148.93,880.272 1149.71,874.177 1150.68,871.396Z" style="fill:none;stroke:white;stroke-width:15.29px;"/>
            </g>
            <g transform="matrix(0.0647131,-0.0173398,0.0173398,0.0647131,571.201,3423.56)">
                <path d="M3607.26,2429.98L3602.34,2436.49L3595.96,2442.01L3588.14,2446.51L3579.05,2449.77L3568.6,2451.98L3556.82,2453.14L3543.91,2453.01L3529.79,2451.83L3514.51,2449.58L3498.27,2446.08L3481.02,2441.54L3462.82,2435.99L3443.89,2429.24L3424.17,2421.53L3403.74,2412.89L3382.85,2403.15L3361.42,2392.56L3339.56,2381.16L3317.5,2368.8L3295.19,2355.74L3272.72,2342.03L3250.35,2327.52L3228.01,2312.49L3205.81,2296.99L3183.98,2280.89L3162.48,2264.47L3161.29,2263.53L3152.2,2266.81L3128.51,2293.53L3109.41,2325.57L3094.93,2353.76L3078.29,2392.84L3062.46,2446.91L3055.66,2489.84L3053.97,2527.93L3054.5,2554.35L3056.69,2579.87L3059.95,2599.28L3092.7,2668.06M3519.69,1857.18L3526.01,1862.02L3532.8,1867.43L3539.29,1872.81L3545.67,1878.33L3551.91,1883.99L3557.64,1889.4L3563.23,1894.95L3568.7,1900.64L3578.06,1910.7L3583.74,1916.92L3589.22,1923.31L3594.49,1929.87L3598.95,1935.86L3610.1,1950.76L3614.83,1957.62L3619.26,1964.67L3630.36,1982.58L3634.07,1989.22L3644.02,2008.8L3647.71,2016.41L3656.42,2037.49L3659.84,2046.07L3667.21,2068.47L3669.5,2075.77L3675.33,2099.27L3676.98,2107.32L3681.18,2131.73L3683.69,2156.38L3684.43,2165.49L3685.09,2190.68L3683.96,2215.85L3683.5,2223.42L3680.69,2248.84L3676.07,2274.01L3674.16,2281.97L3667.73,2306.97L3659.62,2331.48L3649.82,2355.38L3646.24,2363.14L3634.51,2386.15L3621.26,2408.3L3607.26,2429.98L3360.96,2767.08C3292.13,2730.14 3218.01,2700.5 3139.32,2679.42C2588.65,2531.86 2021.78,2859.15 1874.23,3409.82C1856.16,3477.24 1845.21,3544.91 1840.92,3612.03L1834.18,3608.72L1782.47,3580.8L1751.06,3563.45L1719.84,3544.19L1665.88,3507.27L1634.87,3485.76L1604.05,3461.98L1548.68,3417.48L1518.39,3391.76L1462.3,3341.28L1432.89,3314.17L1376.88,3259.21L1348.76,3231.19L1293.72,3173.19L1267.24,3144.63L1214.1,3084.9L1139.24,2995.67L1090.9,2934.6L1045.01,2873.55" style="fill:none;fill-rule:nonzero;stroke:white;stroke-width:79.38px;stroke-miterlimit:4;"/>
            </g>
            <g transform="matrix(0.0647131,-0.0173398,0.0173398,0.0647131,571.201,3423.56)">
                <path d="M504.95,2464.76L482.705,2495.21L444.137,2553.21L413.377,2616.82L390.596,2686.16L386.718,2702.35L372.399,2775.4L366.206,2853.56L368.139,2936.83L378.198,3025.22L396.383,3118.72L486.922,3108.27L570.677,3091.54L580.762,3089.41L661.663,3065.57L735.036,3035.62L800.883,2999.55L859.204,2957.36L872.235,2946.09L923.615,2897.27L967.188,2842.86L986.54,2816.37" style="fill:none;fill-rule:nonzero;stroke:white;stroke-width:79.38px;stroke-miterlimit:4;"/>
            </g>
            <g transform="matrix(0.0647131,-0.0173398,0.0173398,0.0647131,571.201,3423.56)">
                <path d="M1840.35,1844.67L1835.44,1851.18L1829.06,1856.7L1821.24,1861.21L1812.15,1864.47L1801.69,1866.67L1789.92,1867.83L1777.01,1867.7L1762.88,1866.52L1747.6,1864.27L1731.37,1860.77L1714.11,1856.23L1695.91,1850.68L1676.98,1843.93L1657.26,1836.22L1636.84,1827.58L1615.94,1817.84L1594.52,1807.25L1572.65,1795.85L1550.59,1783.5L1528.28,1770.43L1505.82,1756.72L1483.44,1742.21L1461.11,1727.18L1438.9,1711.68L1417.08,1695.59L1395.57,1679.16L1374.48,1662.48L1354.04,1645.4L1334.19,1628.21L1315.02,1610.99L1296.76,1593.59L1279.34,1576.3L1262.82,1559.19L1247.44,1542.14L1233.1,1525.42L1219.88,1509.09L1207.97,1493.04L1197.27,1477.52L1187.84,1462.6L1179.87,1448.16L1173.22,1434.44L1167.94,1421.51L1164.21,1409.23L1161.88,1397.85L1160.95,1387.4L1161.61,1377.76L1163.67,1369.14L1167.14,1361.58L1172.15,1354.94L1188.6,1334.95L1205.74,1315.55L1224.15,1297.35L1230.41,1291.94L1250.18,1275.35L1271.05,1260.19L1292.9,1246.48L1299.57,1242.68L1322.02,1230.64L1345.27,1220.24L1369.18,1211.41L1377.49,1208.41L1401.68,1201.44L1409.97,1199.69L1434.16,1194.6L1458.62,1191.19L1466.11,1190.52L1490.19,1188.88L1499.49,1188.88L1522.96,1189.15L1546.34,1191.09L1554.18,1191.75L1561.95,1192.95L1583.56,1196.42L1592.27,1198.25L1612.51,1203.39L1620.14,1205.39L1627.66,1207.73L1645.42,1213.84L1653.05,1216.54L1660.58,1219.49L1668.02,1222.68L1676.32,1226.49L1688.52,1232.28L1695.4,1235.68L1702.19,1239.25L1709.45,1243.28L1716.61,1247.48L1723.68,1251.83L1730.95,1256.5L1738.12,1261.33L1745.19,1266.31L1752.2,1271.43L1759.11,1276.71L1765.9,1282.13L1772.39,1287.5L1778.76,1293.02L1785.01,1298.68L1790.73,1304.1L1796.33,1309.64L1801.79,1315.33L1811.15,1325.39L1816.83,1331.61L1822.31,1338L1827.59,1344.56L1831.88,1350.33L1843.2,1365.45L1847.92,1372.31L1852.35,1379.36L1863.45,1397.27L1867.16,1403.91L1877.12,1423.49L1880.81,1431.1L1889.52,1452.18L1892.94,1460.76L1900.31,1483.17L1902.59,1490.46L1908.43,1513.96L1910.08,1522.01L1914.27,1546.42L1916.79,1571.07L1917.52,1580.19L1918.18,1605.37L1917.06,1630.54L1916.6,1638.11L1913.78,1663.53L1909.16,1688.7L1907.26,1696.66L1900.83,1721.66L1892.72,1746.17L1882.92,1770.07L1879.33,1777.83L1867.61,1800.84L1854.36,1822.99L1840.35,1844.67L1647.88,2108.09L1646.6,2109.82L1643.97,2113.36L1641.89,2116.16L1638.71,2119.22L1631.11,2126.62L1630.29,2127.42L1629,2128.69L1626.33,2131.33L1623,2134.96L1618.95,2139.41L1616.19,2142.45L1613.83,2145.07L1613.21,2145.56L1608.22,2149.48L1603.71,2153.11L1601.66,2154.41L1595.92,2158.13L1580.06,2168.96L1578.82,2169.87L1574.93,2172.72L1573.2,2174.05L1556.52,2187.27L1551.85,2190.16L1542.13,2196.57L1539.45,2198.04L1519.47,2209.78L1511.18,2214.99L1502.32,2220.86L1484.56,2233.34L1470.12,2244.05L1465.06,2247.21L1451.84,2256.15L1444.56,2260.5L1427.53,2271.38L1415,2280.18L1399.69,2291.33L1391.28,2297.82L1357.05,2326.61L1356.74,2326.89L1355.49,2328.1L1326.91,2355.73L1324.29,2358.09L1317.37,2365.05L1295.61,2388.19L1293.57,2390.28L1280.28,2405.7L1264.86,2424.74L1248.37,2447.87L1238.44,2462.74L1222.14,2490.62L1216.26,2501.43L1214.43,2504.69L1206.91,2519.95L1200.2,2532.77L1192.4,2548.62L1181.56,2573.38L1172.62,2595.47L1166.59,2612.5L1155.63,2646.71L1154.7,2650.11L1154.47,2651.09L1153.29,2656.03L1146.46,2685.59L1146.07,2687.55L1142.09,2701.09L1137.95,2717.54L1132.79,2740.93L1131.32,2747.89L1130.41,2752.97L1128.65,2765.61L1127.39,2774.6L1126.92,2776.18L1125.94,2779.83L1122.1,2789.88L1120.52,2794.01L1119.01,2796.1L1117.99,2797.61L1117.1,2799.01L1116.2,2800.43L1113.69,2804.45L1111.86,2805.84L1106.95,2809.54L1102.91,2811.35L1081.81,2815.87L1053.09,2821.94L1032.67,2821.75L995.676,2818.65L977.699,2814.17L935.033,2802.95L886.271,2783.89L833.286,2757.7L778.116,2725.39L722.88,2688.22L669.7,2647.6L620.622,2605.09L577.53,2562.34L542.081,2520.98L515.636,2482.61L506.251,2467.45L488.856,2431.52L482.62,2412.59L476.208,2381.3L474.087,2360.12L476.462,2338.98L482.511,2313.71L489.391,2293L500.349,2274.18L589.311,2152.43L1167.14,1361.58" style="fill:none;fill-rule:nonzero;stroke:white;stroke-width:79.38px;stroke-miterlimit:4;"/>
            </g>
            <g transform="matrix(0.0647131,-0.0173398,0.0173398,0.0647131,571.201,3423.56)">
                <path d="M2587.06,868.424L2538.48,819.611L2526.14,809.622L2512.07,800.419L2452.97,766.501L2436.81,757.842L2419.06,750.001L2399.72,742.948L1935.53,589.176L1915.77,583.279L1849.48,567.132L1830.71,562.853L1812.81,560.192L1795.77,559.166L1726.76,561.703L1711.36,562.302L1696.96,564.568L1683.54,568.52L1616.27,588.436L1605.22,593.673L1540.65,629.543L1532.34,635.563L1473.05,685.179L1467.74,691.358L1415.93,751.925L1371.91,822.522L1337.37,900.437L1313.63,982.676L1301.61,1066.08L1301.73,1129.59L1302.13,1132.8L1302.87,1139.37L1303.09,1141.51L1304.24,1145.41L1304.74,1146.71L1305.28,1148.07L1310.27,1160.75L1312.7,1167.43L1313.34,1168.88L1319.54,1183.89L1323.43,1194.04L1325.79,1198.62L1330.75,1207.7L1331.28,1208.66L1331.56,1209.18L1338.53,1223.25" style="fill:none;fill-rule:nonzero;stroke:white;stroke-width:79.38px;stroke-miterlimit:4;"/>
            </g>
            <g transform="matrix(0.0647131,-0.0173398,0.0173398,0.0647131,571.201,3423.56)">
                <path d="M1909.73,1520.32C1914.01,1512.81 1915.54,1306.77 2151.01,1097.32C2285.74,977.479 2477.17,875.081 2642.77,859.842C2684.98,855.958 2850.38,835.164 3075.84,952.531C3370.7,1106.02 3437.01,1330.23 3449.78,1373.42C3515.28,1594.88 3501.81,1825.17 3527.8,1894.82C3532.49,1907.39 3541.84,1917.87 3546.53,1930.43L3544.39,1929.97C3592.88,1960.85 3653.47,1992.74 3642.71,2026.59C3633.66,2055.05 3614.61,2049.5 3609.21,2100.72C3607.91,2113.02 3606.92,2135.09 3589.54,2153.55C3521.16,2226.16 3216.86,2230.91 3165.46,2254.76C3160.86,2256.9 3135.57,2280.41 3126.18,2297.43" style="fill:none;fill-rule:nonzero;stroke:white;stroke-width:79.38px;stroke-miterlimit:4;"/>
            </g>
            <g transform="matrix(0.0647131,-0.0173398,0.0173398,0.0647131,571.201,3423.56)">
                <path d="M3540.98,1925.29L3548.97,1932.69L3552.75,1935.25L3543.14,1928.75" style="fill:none;fill-rule:nonzero;stroke:white;stroke-width:79.38px;stroke-miterlimit:4;"/>
            </g>
            <g transform="matrix(0.0647131,-0.0173398,0.0173398,0.0647131,571.201,3423.56)">
                <path d="M1006.45,2819.55L1045.01,2873.55L1026.09,2846.62L1007.25,2819.62" style="fill:none;fill-rule:nonzero;stroke:white;stroke-width:79.38px;stroke-miterlimit:4;"/>
            </g>
            <g transform="matrix(0.0647131,-0.0173398,0.0173398,0.0647131,571.201,3423.56)">
                <path d="M713.121,1982.97L715.835,1933.8L720.828,1884.14L727.956,1835.27L737.135,1787.33L748.283,1740.43L761.318,1694.7L776.15,1650.26L785.561,1624.62L802.732,1582L821.402,1540.88L841.427,1501.31L862.662,1463.29L884.963,1426.86L908.184,1392.04L932.182,1358.84L956.81,1327.31L981.926,1297.45L1007.38,1269.3L1033.04,1242.88L1058.75,1218.2L1084.36,1195.31L1109.74,1174.22L1134.74,1154.95L1159.23,1137.53L1183.18,1121.92L1206.59,1108.08L1223.08,1098.84L1245.73,1086.92L1267.79,1076.58L1289.26,1067.8L1302.13,1062.43" style="fill:none;fill-rule:nonzero;stroke:white;stroke-width:79.38px;stroke-miterlimit:4;"/>
            </g>
        </g>
        <g transform="matrix(1.11433,0.298584,-0.298584,1.11433,13.8636,-49.9313)">
            <path d="M101.882,79.504L102.959,83.446C104.321,83.673 105.658,84.031 106.95,84.515L109.854,81.64C111.332,82.312 112.742,83.126 114.063,84.071L113.025,88.023C114.091,88.9 115.07,89.878 115.947,90.944L119.899,89.906C120.843,91.227 121.657,92.637 122.329,94.116L119.454,97.019C119.939,98.312 120.297,99.648 120.524,101.01L124.465,102.087C124.622,103.704 124.622,105.332 124.465,106.948L120.524,108.025C120.297,109.387 119.939,110.723 119.454,112.016L122.329,114.919C121.657,116.398 120.843,117.808 119.899,119.129L115.947,118.091C115.07,119.157 114.091,120.135 113.025,121.012L114.063,124.964C112.742,125.909 111.332,126.723 109.854,127.395L106.95,124.52C105.658,125.004 104.321,125.362 102.959,125.589L101.882,129.531C100.266,129.688 98.638,129.688 97.021,129.531L95.945,125.589C94.583,125.362 93.246,125.004 91.953,124.52L89.05,127.395C87.572,126.723 86.162,125.909 84.84,124.964L85.879,121.012C84.813,120.135 83.834,119.157 82.957,118.091L79.005,119.129C78.061,117.808 77.247,116.398 76.574,114.919L79.45,112.016C78.965,110.723 78.607,109.387 78.38,108.025L74.438,106.948C74.281,105.332 74.281,103.704 74.438,102.087L78.38,101.01C78.607,99.648 78.965,98.312 79.45,97.019L76.574,94.116C77.247,92.637 78.061,91.227 79.005,89.906L82.957,90.944C83.834,89.878 84.813,88.9 85.879,88.023L84.84,84.071C86.162,83.126 87.572,82.312 89.05,81.64L91.953,84.515C93.246,84.031 94.583,83.673 95.945,83.446L97.021,79.504C98.638,79.347 100.266,79.347 101.882,79.504ZM99.452,91.952C106.387,91.952 112.017,97.582 112.017,104.518C112.017,111.453 106.387,117.083 99.452,117.083C92.517,117.083 86.886,111.453 86.886,104.518C86.886,97.582 92.517,91.952 99.452,91.952Z" style="fill:none;stroke:white;stroke-width:2.37px;"/>
        </g>
    </g>
</svg>
